<svg width="95" height="95" viewBox="0 0 95 95" fill="none" xmlns="http://www.w3.org/2000/svg">
<path d="M47.4665 0C21.2413 0 0 21.2413 0 47.4665C0 73.6918 21.2413 94.933 47.4665 94.933C73.6918 94.933 94.933 73.6918 94.933 47.4665C94.933 21.2413 73.6918 0 47.4665 0ZM47.4665 11.8666C51.3825 11.8666 55.0612 12.9346 58.6212 14.1213C56.1292 16.4946 53.2812 18.6306 53.7558 20.7666C54.2305 22.9026 61.9438 22.3093 61.9438 26.6999C61.9438 29.9039 56.9598 30.8532 60.4011 34.5319C64.5545 38.6852 52.8065 46.1612 52.5692 51.6198C52.2132 61.4691 62.5371 63.1305 70.7251 63.1305C75.7091 63.1305 77.0144 65.5038 76.6584 68.3518C70.2505 77.4891 59.3332 83.1851 47.3479 83.1851C42.8385 83.1851 38.6852 82.1171 34.7692 80.5744C37.3799 75.3531 31.4466 65.0291 25.8693 61.7065C23.1399 58.9772 17.3253 60.0451 14.0026 58.7398C12.9346 55.5358 11.8666 52.3318 11.748 48.7719C12.104 48.1785 12.6973 47.7039 13.6466 47.7039C15.9013 47.7039 18.9866 52.2132 20.6479 51.7385C22.7839 51.2638 11.8666 36.1932 16.9693 33.2266C19.3426 31.8026 24.0893 37.8546 22.5466 31.3279C21.1226 25.2759 26.8186 28.0052 30.3786 26.4626C33.4639 25.1573 35.7186 21.5973 31.9212 19.4613C31.2092 19.1053 30.3786 18.2746 29.3106 17.2066C34.6506 14.0026 40.8212 11.9853 47.4665 11.9853V11.8666ZM74.8784 24.8013C77.0144 27.4119 78.6758 30.2599 80.0998 33.3452V33.7012C79.6251 34.5319 78.7944 35.0066 77.4891 36.3119C74.1664 39.6345 73.6918 33.8199 72.2678 32.6332C70.7251 31.2092 65.1478 32.8706 64.4358 31.0906C63.6051 28.9546 70.3691 26.1066 74.8784 24.8013Z" fill="#F4F4F4"/>
<path d="M48.7897 18.9012L55.4152 30.377C16.3835 52.912 13.4167 70.3085 23.1894 87.2353C21.7043 72.9447 32.767 58.7541 52.2829 47.4866L62.0408 41.8528L68.6664 53.3286L87.4718 18.2956L48.7897 18.9012Z" fill="#1A0202"/>
</svg>
